<svg xmlns="http://www.w3.org/2000/svg" viewBox="0 0 50 50"><path fill="#FFF" d="M25 50C11.2 50 0 38.8 0 25c0-6.6 2.6-13 7.3-17.7 9.8-9.8 25.6-9.8 35.4 0s9.8 25.6 0 35.4C38 47.4 31.6 50 25 50zm0-46.1C13.4 3.9 3.9 13.4 3.9 25S13.4 46.1 25 46.1 46.1 36.6 46.1 25c0-11.6-9.5-21.1-21.1-21.1zm9.8 30.7c-.1-.2-3.6-5.6-9.9-5.6s-9.7 5.4-9.8 5.6c-.6.9-.3 2.1.6 2.7.9.6 2.1.3 2.7-.6 0 0 2.5-3.8 6.6-3.8s6.5 3.7 6.6 3.8c.6.9 1.8 1.2 2.7.6.8-.6 1-1.8.5-2.7z"/><g fill="#E0245E"><path d="M13.918 15.137c-1.1-.1-2 .6-2.2 1.7s.6 2 1.7 2.2c1.2.1 2.3.5 3.2 1.2-1.1.7-1.4 2.3-.6 3.4.5.7 1.2 1.1 2 1.1 2 0 3.1-1.9 3.1-3.8 0-1.1-.4-2.2-1.2-3-1.7-1.6-3.8-2.6-6-2.8zM38.218 16.837c-.1-1.1-1.1-1.8-2.2-1.7-2.2.2-4.3 1.2-5.9 2.8-.8.8-1.2 1.9-1.2 3 0 2.1 1.1 3.8 3.1 3.8 1.3 0 2.4-1.1 2.4-2.4 0-.8-.4-1.6-1.1-2 .9-.7 2.1-1.1 3.2-1.2 1.1-.2 1.9-1.2 1.7-2.3z"/></g></svg>
