<svg xmlns="http://www.w3.org/2000/svg" viewBox="0 0 86 92"><path fill="#FFF" d="M43 68c-13.8 0-25-11.2-25-25 0-6.6 2.6-13 7.3-17.7 9.8-9.8 25.6-9.8 35.4 0s9.8 25.6 0 35.4C56 65.4 49.6 68 43 68zm0-46.1c-11.6 0-21.1 9.4-21.1 21.1S31.4 64.1 43 64.1 64.1 54.7 64.1 43c0-11.6-9.5-21.1-21.1-21.1zm0 36.3c-5.4 0-8.2-2.7-9.6-5-.8-1.3-.9-3-.1-4.4.8-1.4 2.2-2.3 3.8-2.3h11.7c1.6 0 3.1.9 3.8 2.3.8 1.4.8 3.1-.1 4.4-1.3 2.3-4.1 5-9.5 5zm-5.9-7.8c-.2 0-.3.1-.4.3-.1.1-.1.3 0 .5 1.3 2.1 3.8 3.4 6.3 3.2 2.5.2 4.9-1 6.3-3.2.1-.1.1-.3 0-.5s-.3-.3-.4-.3H37.1z"/><path fill="#17BF63" d="M51.5 41.4c-1.1 0-2-.9-2-2V34c0-1.1.9-2 2-2s2 .9 2 2v5.4c-.1 1.2-.9 2-2 2zm-15.1-1.9v-5.4c0-1.1-.9-2-2-2s-2 .9-2 2v5.4c0 1.1.9 2 2 2s2-.9 2-2z"/><path fill="#FFF" d="M43 0C19.3 0 0 19.3 0 43c0 12.5 5.4 23.9 14 31.7V92h4V73C9.5 65.7 4 55 4 43 4 21.5 21.5 4 43 4s39 17.5 39 39c0 12-5.4 22.7-14 29.9v19h4V74.7c8.6-7.9 14-19.2 14-31.7C86 19.3 66.7 0 43 0z"/></svg>
