<svg xmlns="http://www.w3.org/2000/svg" viewBox="0 0 63 60"><path fill="#FFF" d="M30 47c-9.4 0-17-7.6-17-17 0-4.5 1.8-8.8 5-12 6.6-6.6 17.4-6.6 24 0s6.6 17.4 0 24c-3.2 3.2-7.5 5-12 5zm0-31.3c-7.9 0-14.3 6.4-14.3 14.3S22.1 44.3 30 44.3 44.3 37.9 44.3 30 37.9 15.7 30 15.7zm6.6 20.8c-.1-.2-2.5-3.8-6.7-3.8s-6.6 3.6-6.7 3.8c-.4.6-.2 1.4.4 1.8.6.4 1.4.2 1.8-.4 1-1.5 2.7-2.5 4.5-2.6 1.8.1 3.4 1.1 4.5 2.6.4.6 1.2.8 1.8.4s.8-1.2.4-1.8z"/><g fill="#E63068"><path d="M22.469 23.293c-.7-.1-1.4.4-1.5 1.1-.1.7.4 1.4 1.1 1.5.8.1 1.6.3 2.2.8-.8.5-1 1.5-.5 2.3.3.5.8.7 1.4.7 1.3-.1 2.2-1.3 2.1-2.6 0-.8-.3-1.5-.8-2-1-1-2.5-1.7-4-1.8zM39.069 24.493c-.1-.7-.8-1.2-1.5-1.1-1.5.1-3 .8-4 1.9-.5.5-.8 1.3-.8 2 0 1.4.7 2.6 2.1 2.6.9 0 1.7-.7 1.7-1.7 0-.6-.3-1.1-.7-1.4.6-.5 1.4-.8 2.2-.8.5-.1 1-.8 1-1.5z"/></g><path fill="#FFF" d="M59 49H47.8l-1.1.9C42 53.8 36.1 56 30 56 15.7 56 4 44.3 4 30S15.7 4 30 4c6.1 0 12 2.2 16.7 6.1l1.1.9H63V7H49.3C44 2.6 37.3 0 30 0 13.4 0 0 13.4 0 30s13.4 30 30 30c7.3 0 14-2.6 19.3-7H63v-4h-4z"/></svg>
