<svg xmlns="http://www.w3.org/2000/svg" viewBox="0 0 86 92"><path fill="#FFF" d="M43 74c-13.8 0-25-11.2-25-25 0-6.6 2.6-13 7.3-17.7 9.8-9.8 25.6-9.8 35.4 0 9.8 9.8 9.8 25.6 0 35.4C56 71.4 49.6 74 43 74zm0-46.1c-11.6 0-21.1 9.4-21.1 21.1S31.3 70.1 43 70.1 64.1 60.7 64.1 49c0-11.6-9.5-21.1-21.1-21.1zm9.8 30.7c-.1-.2-3.6-5.6-9.9-5.6s-9.7 5.4-9.8 5.6c-.6.9-.3 2.1.6 2.7.9.6 2.1.3 2.7-.6 0 0 2.5-3.8 6.6-3.8s6.5 3.7 6.6 3.8c.6.9 1.8 1.2 2.7.6.8-.6 1-1.8.5-2.7z"/><g fill="#E63068"><path d="M31.918 39.137c-1.1-.1-2 .6-2.2 1.7-.1 1.1.6 2 1.7 2.2 1.2.1 2.3.5 3.2 1.2-1.1.7-1.4 2.3-.7 3.4.5.7 1.2 1.1 2 1.1 2 0 3.1-1.9 3.1-3.8 0-1.1-.4-2.2-1.2-3-1.6-1.6-3.7-2.6-5.9-2.8zM56.218 40.837c-.1-1.1-1.1-1.8-2.2-1.7-2.2.2-4.3 1.2-5.9 2.8-.8.8-1.2 1.9-1.2 3 0 2.1 1.1 3.8 3.1 3.8 1.3 0 2.4-1.1 2.4-2.4 0-.8-.4-1.6-1.1-2 .9-.7 2.1-1.1 3.2-1.2 1.1-.2 1.9-1.2 1.7-2.3z"/></g><path fill="#FFF" d="M72 17.3V0h-4v19c8.5 7.3 14 18 14 30 0 21.5-17.5 39-39 39S4 70.5 4 49c0-12 5.4-22.7 14-29.9V0h-4v17.3C5.4 25.1 0 36.5 0 49c0 23.7 19.3 43 43 43s43-19.3 43-43c0-12.5-5.4-23.9-14-31.7z"/></svg>
