<svg xmlns="http://www.w3.org/2000/svg" viewBox="0 0 63 60"><path fill="#FFF" d="M33.039 47.04c-9.4 0-17-7.6-17-17 0-4.5 1.8-8.8 5-12 6.6-6.6 17.4-6.6 24 0 6.6 6.6 6.6 17.4 0 24-3.2 3.2-7.5 5-12 5zm0-31.4c-7.9 0-14.3 6.4-14.3 14.3s6.4 14.3 14.3 14.3 14.3-6.4 14.3-14.3-6.4-14.3-14.3-14.3zm0 24.7c-2.6.1-5.2-1.2-6.5-3.4-.6-.9-.6-2.1-.1-3 .5-.9 1.5-1.5 2.6-1.5h8c1.1 0 2.1.6 2.6 1.5s.5 2.1-.1 3c-1.4 2.2-3.9 3.6-6.5 3.4zm-4-5.3c-.1 0-.2.1-.3.2-.1.1-.1.2 0 .3.9 1.5 2.6 2.3 4.3 2.2 1.7.1 3.4-.7 4.3-2.2.1-.1.1-.2 0-.3-.1-.1-.2-.2-.3-.2h-8z"/><path fill="#17BF63" d="M38.739 28.94c-.7 0-1.3-.6-1.3-1.3v-3.7c0-.7.6-1.3 1.3-1.3.7 0 1.3.6 1.3 1.3v3.7c.1.7-.5 1.3-1.3 1.3zm-10.3-1.3v-3.7c0-.7-.6-1.3-1.3-1.3-.7 0-1.3.6-1.3 1.3v3.7c0 .7.6 1.3 1.3 1.3.8 0 1.3-.6 1.3-1.3z"/><path fill="#FFF" d="M33 0c-7.3 0-14 2.6-19.3 7H0v4h15.2l1.1-.9C21 6.2 26.9 4 33 4c14.3 0 26 11.7 26 26S47.3 56 33 56c-6.1 0-12-2.2-16.7-6.1l-1.1-.9H0v4h13.7c5.2 4.4 11.9 7 19.3 7 16.6 0 30-13.4 30-30S49.6 0 33 0z"/></svg>
