<svg xmlns="http://www.w3.org/2000/svg" viewBox="0 0 50 50"><path fill="#FFF" d="M25 50C11.2 50 0 38.8 0 25c0-6.6 2.6-13 7.3-17.7 9.8-9.8 25.6-9.8 35.4 0s9.8 25.6 0 35.4C38 47.4 31.6 50 25 50zm0-46.1C13.4 3.9 3.9 13.4 3.9 25S13.4 46.1 25 46.1 46.1 36.6 46.1 25c0-11.6-9.5-21.1-21.1-21.1zm0 36.3c-5.4 0-8.2-2.7-9.6-5-.8-1.3-.9-3-.1-4.4.8-1.4 2.2-2.3 3.8-2.3h11.7c1.6 0 3.1.9 3.8 2.3.8 1.4.8 3.1-.1 4.4-1.3 2.3-4.1 5-9.5 5zm-5.9-7.8c-.2 0-.3.1-.4.3-.1.1-.1.3 0 .5 1.3 2.1 3.8 3.4 6.3 3.2 2.5.2 4.9-1 6.3-3.2.1-.1.1-.3 0-.5s-.3-.3-.4-.3H19.1z"/><path fill="#17BF63" d="M33.5 23.4c-1.1 0-2-.9-2-2V16c0-1.1.9-2 2-2s2 .9 2 2v5.4c-.1 1.2-.9 2-2 2zm-15.1-1.9v-5.4c0-1.1-.9-2-2-2s-2 .9-2 2v5.4c0 1.1.9 2 2 2s2-.9 2-2z"/></svg>
