<?xml version="1.0" encoding="utf-8"?>
<svg version="1.1" id="Camada_1" xmlns="http://www.w3.org/2000/svg" xmlns:xlink="http://www.w3.org/1999/xlink" x="0px" y="0px"
	 viewBox="0 0 152.6 30" style="enable-background:new 0 0 152.6 30;" xml:space="preserve">
<style type="text/css">
	.st0{enable-background:new    ;}
	.st1{fill:#FFFFFF;}
</style>
<g>
	<g class="st0">
		<path class="st1" d="M47.6,8.2v2.6H44v10.8h-3.3V10.8h-3.6V8.2H47.6z"/>
		<path class="st1" d="M64.5,11.1l-2.7,10.6h-3.6l-1.9-7.1l-1.9,7.1h-3.6l-2.7-10.6h3.2l1.4,7.6l2-7.6H58l2,7.7l1.4-7.7H64.5z"/>
		<path class="st1" d="M75.6,16.9h-7.3c0,0.8,0.2,1.4,0.6,1.7s0.8,0.5,1.4,0.5c0.5,0,0.9-0.1,1.2-0.4c0.3-0.2,0.5-0.6,0.6-0.9h3.4
			c-0.1,0.7-0.4,1.4-0.9,2c-0.5,0.6-1.1,1.1-1.8,1.4c-0.7,0.3-1.5,0.5-2.4,0.5c-1,0-2-0.2-2.8-0.7c-0.8-0.4-1.4-1.1-1.9-1.9
			s-0.7-1.8-0.7-2.9c0-1.1,0.2-2.1,0.7-2.9c0.4-0.8,1.1-1.4,1.9-1.9c0.8-0.4,1.7-0.7,2.8-0.7c1.1,0,2,0.2,2.8,0.6
			c0.8,0.4,1.4,1,1.9,1.8c0.4,0.8,0.7,1.7,0.7,2.7C75.7,16.3,75.7,16.6,75.6,16.9z M71.9,14c-0.4-0.3-0.9-0.5-1.4-0.5
			c-0.6,0-1.1,0.2-1.5,0.5s-0.6,0.9-0.7,1.6h4.1C72.5,14.9,72.3,14.4,71.9,14z"/>
		<path class="st1" d="M87.4,16.9H80c0,0.8,0.2,1.4,0.6,1.7s0.8,0.5,1.4,0.5c0.5,0,0.9-0.1,1.2-0.4c0.3-0.2,0.5-0.6,0.6-0.9h3.4
			c-0.1,0.7-0.4,1.4-0.9,2c-0.5,0.6-1.1,1.1-1.8,1.4c-0.7,0.3-1.5,0.5-2.4,0.5c-1,0-2-0.2-2.8-0.7c-0.8-0.4-1.4-1.1-1.9-1.9
			s-0.7-1.8-0.7-2.9c0-1.1,0.2-2.1,0.7-2.9c0.4-0.8,1.1-1.4,1.9-1.9c0.8-0.4,1.7-0.7,2.8-0.7c1.1,0,2,0.2,2.8,0.6
			c0.8,0.4,1.4,1,1.9,1.8c0.4,0.8,0.7,1.7,0.7,2.7C87.5,16.3,87.5,16.6,87.4,16.9z M83.6,14c-0.4-0.3-0.9-0.5-1.4-0.5
			c-0.6,0-1.1,0.2-1.5,0.5c-0.4,0.4-0.6,0.9-0.7,1.6h4.1C84.2,14.9,84,14.4,83.6,14z"/>
		<path class="st1" d="M95.2,18.9v2.8h-1.5c-1.2,0-2.2-0.3-2.9-0.9c-0.7-0.6-1-1.6-1-3v-3.9h-1.4v-2.7h1.4V8.4H93v2.6h2.1v2.7H93v4
			c0,0.4,0.1,0.7,0.3,0.9c0.2,0.2,0.5,0.2,0.9,0.2H95.2z"/>
		<path class="st1" d="M112.1,8.3v13.3h-3.2v-8.3l-2.9,8.3h-2.8l-2.9-8.4v8.4H97V8.3h4l3.6,9.3l3.6-9.3H112.1z"/>
		<path class="st1" d="M124.3,16.9H117c0,0.8,0.2,1.4,0.6,1.7s0.8,0.5,1.4,0.5c0.5,0,0.9-0.1,1.2-0.4c0.3-0.2,0.5-0.6,0.6-0.9h3.4
			c-0.1,0.7-0.4,1.4-0.9,2c-0.5,0.6-1.1,1.1-1.8,1.4c-0.7,0.3-1.5,0.5-2.4,0.5c-1,0-2-0.2-2.8-0.7c-0.8-0.4-1.4-1.1-1.9-1.9
			s-0.7-1.8-0.7-2.9c0-1.1,0.2-2.1,0.7-2.9c0.4-0.8,1.1-1.4,1.9-1.9c0.8-0.4,1.7-0.7,2.8-0.7c1.1,0,2,0.2,2.8,0.6
			c0.8,0.4,1.4,1,1.9,1.8c0.4,0.8,0.7,1.7,0.7,2.7C124.4,16.3,124.4,16.6,124.3,16.9z M120.6,14c-0.4-0.3-0.9-0.5-1.4-0.5
			c-0.6,0-1.1,0.2-1.5,0.5s-0.6,0.9-0.7,1.6h4.1C121.1,14.9,120.9,14.4,120.6,14z"/>
		<path class="st1" d="M132.1,18.9v2.8h-1.5c-1.2,0-2.2-0.3-2.9-0.9c-0.7-0.6-1-1.6-1-3v-3.9h-1.4v-2.7h1.4V8.4h3.2v2.6h2.1v2.7
			h-2.1v4c0,0.4,0.1,0.7,0.3,0.9c0.2,0.2,0.5,0.2,0.9,0.2H132.1z"/>
		<path class="st1" d="M143.9,16.9h-7.3c0,0.8,0.2,1.4,0.6,1.7c0.4,0.3,0.8,0.5,1.4,0.5c0.5,0,0.9-0.1,1.2-0.4
			c0.3-0.2,0.5-0.6,0.6-0.9h3.4c-0.1,0.7-0.4,1.4-0.9,2c-0.5,0.6-1.1,1.1-1.8,1.4c-0.7,0.3-1.5,0.5-2.4,0.5c-1,0-2-0.2-2.8-0.7
			c-0.8-0.4-1.4-1.1-1.9-1.9c-0.5-0.8-0.7-1.8-0.7-2.9c0-1.1,0.2-2.1,0.7-2.9c0.4-0.8,1.1-1.4,1.9-1.9c0.8-0.4,1.7-0.7,2.8-0.7
			c1.1,0,2,0.2,2.8,0.6c0.8,0.4,1.4,1,1.9,1.8c0.4,0.8,0.7,1.7,0.7,2.7C144,16.3,143.9,16.6,143.9,16.9z M140.1,14
			c-0.4-0.3-0.9-0.5-1.4-0.5c-0.6,0-1.1,0.2-1.5,0.5c-0.4,0.4-0.6,0.9-0.7,1.6h4.1C140.7,14.9,140.5,14.4,140.1,14z"/>
		<path class="st1" d="M150.5,11.5c0.6-0.4,1.3-0.6,2.1-0.6v3.5h-0.9c-0.9,0-1.5,0.2-2,0.6c-0.5,0.4-0.7,1-0.7,1.9v4.8h-3.2V11.1
			h3.2v2C149.3,12.4,149.8,11.9,150.5,11.5z"/>
	</g>
	<g id="Grupo_3">
		<path id="Caminho_6" class="st1" d="M0,15h3c0-4.8,2.9-9.2,7.3-11.1c2.9-1.2,6.2-1.2,9.2-0.1c0.1,2.1,1.8,3.7,3.9,3.6
			c2.1-0.1,3.7-1.8,3.6-3.9S25.1-0.1,23.1,0c-0.9,0-1.8,0.4-2.5,1.1c-3.7-1.5-7.8-1.4-11.4,0.1C3.6,3.5,0,9,0,15z M26,19.7
			c-1.2,2.9-3.5,5.2-6.4,6.4c-2.9,1.2-6.2,1.2-9.2,0.1c-0.1-2.1-1.8-3.7-3.9-3.6S3,24.4,3,26.4c0.1,2.1,1.8,3.7,3.9,3.6
			c0.9,0,1.8-0.4,2.5-1.1c7.7,3.1,16.4-0.6,19.5-8.2c0.7-1.8,1.1-3.7,1.1-5.7h-3C27,16.6,26.7,18.2,26,19.7z"/>
		<path id="Caminho_7" class="st1" d="M15,8.2c-3.8,0-6.8,3-6.8,6.8s3,6.8,6.8,6.8s6.8-3,6.8-6.8C21.8,11.2,18.7,8.2,15,8.2z
			 M15,18.8c-2.1,0-3.8-1.7-3.8-3.8c0-2.1,1.7-3.8,3.8-3.8c2.1,0,3.8,1.7,3.8,3.8C18.8,17.1,17.1,18.8,15,18.8z"/>
	</g>
</g>
</svg>
