<?xml version="1.0" encoding="utf-8"?>
<svg version="1.1" id="Camada_1" xmlns="http://www.w3.org/2000/svg" xmlns:xlink="http://www.w3.org/1999/xlink" x="0px" y="0px"
	 viewBox="0 0 30 30" style="enable-background:new 0 0 30 30;" xml:space="preserve">
<g id="Grupo_3">
	<path id="Caminho_6" class="st0" d="M0,15h3c0-4.8,2.9-9.2,7.3-11.1c2.9-1.2,6.2-1.2,9.2-0.1c0.1,2.1,1.8,3.7,3.9,3.6
		C25.4,7.4,27,5.6,27,3.6S25.1-0.1,23.1,0c-0.9,0-1.8,0.4-2.5,1.1c-3.7-1.5-7.8-1.4-11.4,0.1C3.6,3.5,0,9,0,15z M26.1,19.7
		c-1.2,2.9-3.5,5.2-6.4,6.4c-2.9,1.2-6.2,1.2-9.2,0.1c-0.1-2.1-1.8-3.7-3.9-3.6S3,24.4,3,26.4c0.1,2.1,1.8,3.7,3.9,3.6
		c0.9,0,1.8-0.4,2.5-1.1c7.7,3.1,16.4-0.6,19.5-8.2c0.7-1.8,1.1-3.7,1.1-5.7h-3C27,16.6,26.7,18.2,26.1,19.7z"/>
	<path id="Caminho_7" class="st0" d="M15,8.2c-3.8,0-6.8,3-6.8,6.8s3,6.8,6.8,6.8s6.8-3,6.8-6.8C21.8,11.2,18.8,8.2,15,8.2z
		 M15,18.8c-2.1,0-3.8-1.7-3.8-3.8c0-2.1,1.7-3.8,3.8-3.8c2.1,0,3.8,1.7,3.8,3.8C18.8,17.1,17.1,18.8,15,18.8z"/>
</g>
</svg>
