<svg xmlns="http://www.w3.org/2000/svg" viewBox="0 0 50 50"><path fill="#FFF" d="M25 50C11.2 50 0 38.8 0 25c0-6.6 2.6-13 7.3-17.7 9.8-9.8 25.6-9.8 35.4 0s9.8 25.6 0 35.4C38 47.4 31.6 50 25 50zm0-46.1C13.4 3.9 3.9 13.4 3.9 25S13.4 46.1 25 46.1 46.1 36.6 46.1 25c0-11.6-9.5-21.1-21.1-21.1zm9.8 28.6c0-1.1-.9-2-2-2H17.2c-1.1 0-2 .9-2 2s.9 2 2 2h15.6c1.1 0 2-.9 2-2z"/><path fill="#FFAD1F" d="M16.4 16.2c1.3 0 2.4 1.1 2.4 2.4S17.7 21 16.4 21 14 20 14 18.7c0-1.4 1.1-2.5 2.4-2.5zm14.7 2.5c0 1.3 1.1 2.4 2.4 2.4s2.4-1.1 2.4-2.4c0-1.3-1.1-2.4-2.4-2.4-1.4-.1-2.4 1-2.4 2.4z"/></svg>
